<svg xmlns="http://www.w3.org/2000/svg" viewBox="0 0 900 500" width="900" height="500"><rect width="900" height="500" fill="#0f172a"/><rect x="0" y="0" width="900" height="78" fill="#1e293b"/><text x="24" y="38" fill="#e2e8f0" font-family="sans-serif" font-size="20" font-weight="700">CENTCOM Status Report</text><text x="24" y="62" fill="#64748b" font-family="sans-serif" font-size="12">Composed from report_gen + svg_viz MCPs</text><rect x="16" y="94" width="868" height="188" fill="#1e293b" rx="6"/><text x="28" y="116" fill="#e2e8f0" font-family="sans-serif" font-size="13" font-weight="600">Ammo Stockpile</text><circle cx="32" cy="146" r="5" fill="#10b981"/><text x="46" y="150" fill="#e2e8f0" font-family="sans-serif" font-size="12">5.56mm</text><text x="872" y="150" fill="#e2e8f0" font-family="sans-serif" font-size="12" font-weight="600" text-anchor="end">120,000 rounds</text><circle cx="32" cy="172" r="5" fill="#10b981"/><text x="46" y="176" fill="#e2e8f0" font-family="sans-serif" font-size="12">7.62mm</text><text x="872" y="176" fill="#e2e8f0" font-family="sans-serif" font-size="12" font-weight="600" text-anchor="end">85,000 rounds</text><circle cx="32" cy="198" r="5" fill="#f59e0b"/><text x="46" y="202" fill="#e2e8f0" font-family="sans-serif" font-size="12">155mm artillery</text><text x="872" y="202" fill="#e2e8f0" font-family="sans-serif" font-size="12" font-weight="600" text-anchor="end">8,400 shells</text><circle cx="32" cy="224" r="5" fill="#f59e0b"/><text x="46" y="228" fill="#e2e8f0" font-family="sans-serif" font-size="12">Javelin</text><text x="872" y="228" fill="#e2e8f0" font-family="sans-serif" font-size="12" font-weight="600" text-anchor="end">350 missiles</text><circle cx="32" cy="250" r="5" fill="#ef4444"/><text x="46" y="254" fill="#e2e8f0" font-family="sans-serif" font-size="12">Hellfire</text><text x="872" y="254" fill="#e2e8f0" font-family="sans-serif" font-size="12" font-weight="600" text-anchor="end">220 missiles</text><rect x="16" y="294" width="868" height="162" fill="#1e293b" rx="6"/><text x="28" y="316" fill="#e2e8f0" font-family="sans-serif" font-size="13" font-weight="600">Personnel Readiness</text><circle cx="32" cy="346" r="5" fill="#10b981"/><text x="46" y="350" fill="#e2e8f0" font-family="sans-serif" font-size="12">3rd Infantry Division</text><text x="872" y="350" fill="#e2e8f0" font-family="sans-serif" font-size="12" font-weight="600" text-anchor="end">C-1</text><circle cx="32" cy="372" r="5" fill="#10b981"/><text x="46" y="376" fill="#e2e8f0" font-family="sans-serif" font-size="12">82nd Airborne Division</text><text x="872" y="376" fill="#e2e8f0" font-family="sans-serif" font-size="12" font-weight="600" text-anchor="end">C-1</text><circle cx="32" cy="398" r="5" fill="#10b981"/><text x="46" y="402" fill="#e2e8f0" font-family="sans-serif" font-size="12">U.S. Cyber Command (forward element)</text><text x="872" y="402" fill="#e2e8f0" font-family="sans-serif" font-size="12" font-weight="600" text-anchor="end">C-1</text><circle cx="32" cy="424" r="5" fill="#f59e0b"/><text x="46" y="428" fill="#e2e8f0" font-family="sans-serif" font-size="12">82nd Fighter Wing</text><text x="872" y="428" fill="#e2e8f0" font-family="sans-serif" font-size="12" font-weight="600" text-anchor="end">C-2</text><text x="24" y="486" fill="#64748b" font-family="sans-serif" font-size="10">Synthetic data — non-classified. Demo only.</text></svg>