<svg width="1200" height="580" viewBox="0 0 1200 580" fill="none" xmlns="http://www.w3.org/2000/svg" role="img" aria-labelledby="title desc">
  <title id="title">Config resolution cascade</title>
  <desc id="desc">Waterfall diagram showing how the CLI resolves configuration: CLI flag, then environment variable, then project .ax/config.toml, then active profile, then global ~/.ax/config.toml. First match wins.</desc>
  <defs>
    <linearGradient id="bg" x1="0" y1="0" x2="1200" y2="580" gradientUnits="userSpaceOnUse">
      <stop stop-color="#0B1220"/>
      <stop offset="1" stop-color="#111827"/>
    </linearGradient>
    <marker id="arrow" viewBox="0 0 10 10" refX="8" refY="5" markerWidth="8" markerHeight="8" orient="auto-start-reverse">
      <path d="M0 0L10 5L0 10V0Z" fill="#60A5FA"/>
    </marker>
    <marker id="arrowGreen" viewBox="0 0 10 10" refX="8" refY="5" markerWidth="8" markerHeight="8" orient="auto-start-reverse">
      <path d="M0 0L10 5L0 10V0Z" fill="#22C55E"/>
    </marker>
    <style>
      .title { font: 700 34px Inter, system-ui, sans-serif; fill: #F8FAFC; }
      .subtitle { font: 500 16px Inter, system-ui, sans-serif; fill: #94A3B8; }
      .label { font: 700 20px Inter, system-ui, sans-serif; fill: #E2E8F0; }
      .body { font: 500 16px Inter, system-ui, sans-serif; fill: #CBD5E1; }
      .small { font: 600 13px Inter, system-ui, sans-serif; fill: #93C5FD; letter-spacing: 0.08em; text-transform: uppercase; }
      .mono { font: 600 14px 'SFMono-Regular', Consolas, monospace; fill: #DBEAFE; }
      .note { font: 500 14px Inter, system-ui, sans-serif; fill: #94A3B8; }
      .num { font: 700 18px Inter, system-ui, sans-serif; fill: #DBEAFE; }
    </style>
  </defs>

  <rect width="1200" height="580" rx="28" fill="url(#bg)"/>
  <text x="72" y="72" class="title">Config Resolution Cascade</text>
  <text x="72" y="104" class="subtitle">The CLI checks five sources in order for each config key (token, base_url, agent_name, etc.). First match wins.</text>

  <!-- Level 1: CLI flag -->
  <rect x="72" y="138" width="36" height="36" rx="18" fill="#2563EB"/>
  <text x="84" y="162" class="num">1</text>
  <rect x="128" y="132" width="980" height="68" rx="18" fill="#0F172A" stroke="#2563EB" stroke-width="2"/>
  <text x="160" y="164" class="label">CLI flag</text>
  <text x="340" y="164" class="mono">ax send --base-url https://dev.paxai.app "hello"</text>
  <text x="160" y="186" class="note">Highest priority. Overrides everything.</text>

  <!-- Arrow down -->
  <path d="M90 178V210" stroke="#60A5FA" stroke-width="2" stroke-dasharray="6 6"/>

  <!-- Level 2: Env var -->
  <rect x="72" y="218" width="36" height="36" rx="18" fill="#1D4ED8"/>
  <text x="83" y="242" class="num">2</text>
  <rect x="128" y="212" width="980" height="68" rx="18" fill="#0F172A" stroke="#334155" stroke-width="2"/>
  <text x="160" y="244" class="label">Environment variable</text>
  <text x="400" y="244" class="mono">AX_BASE_URL  AX_TOKEN  AX_AGENT_NAME  AX_AGENT_ID  AX_SPACE_ID</text>
  <text x="160" y="266" class="note">Useful for CI, containers, and scripted setups.</text>

  <!-- Arrow down -->
  <path d="M90 258V290" stroke="#60A5FA" stroke-width="2" stroke-dasharray="6 6"/>

  <!-- Level 3: Project config -->
  <rect x="72" y="298" width="36" height="36" rx="18" fill="#1E3A5F"/>
  <text x="83" y="322" class="num">3</text>
  <rect x="128" y="292" width="980" height="68" rx="18" fill="#0F172A" stroke="#334155" stroke-width="2"/>
  <text x="160" y="324" class="label">Project config</text>
  <text x="360" y="324" class="mono">.ax/config.toml</text>
  <text x="560" y="324" class="note">(walks up from cwd looking for nearest .ax/ directory)</text>
  <text x="160" y="346" class="note">Workspace-scoped. Shared by all agents in this directory. Agent identity, not credentials.</text>

  <!-- Arrow down -->
  <path d="M90 338V370" stroke="#60A5FA" stroke-width="2" stroke-dasharray="6 6"/>

  <!-- Level 4: Active profile -->
  <rect x="72" y="378" width="36" height="36" rx="18" fill="#1E3A5F"/>
  <text x="83" y="402" class="num">4</text>
  <rect x="128" y="372" width="980" height="68" rx="18" fill="#0F172A" stroke="#334155" stroke-width="2"/>
  <text x="160" y="404" class="label">Active profile</text>
  <text x="360" y="404" class="mono">~/.ax/profiles/&lt;name&gt;/profile.toml</text>
  <text x="160" y="426" class="note">Named config bundle with token file reference, fingerprint verification, and host binding.</text>

  <!-- Arrow down -->
  <path d="M90 418V450" stroke="#60A5FA" stroke-width="2" stroke-dasharray="6 6"/>

  <!-- Level 5: Global config -->
  <rect x="72" y="458" width="36" height="36" rx="18" fill="#1E293B"/>
  <text x="83" y="482" class="num">5</text>
  <rect x="128" y="452" width="980" height="68" rx="18" fill="#0F172A" stroke="#334155" stroke-width="2"/>
  <text x="160" y="484" class="label">Global config</text>
  <text x="360" y="484" class="mono">~/.ax/config.toml</text>
  <text x="160" y="506" class="note">Lowest priority. Default fallback for base_url and other global defaults only.</text>

  <!-- Side annotation -->
  <rect x="72" y="536" width="640" height="30" rx="12" fill="#0B1220" stroke="#1E293B"/>
  <text x="96" y="556" class="note">User login credentials (~/.ax/user.toml) are merged into config but stored separately from agent config</text>
</svg>
